<svg width="17" height="16" viewBox="0 0 17 16" fill="none" xmlns="http://www.w3.org/2000/svg">
<path d="M5.83337 1.33325V3.33325" stroke="#919598" stroke-width="1.5" stroke-miterlimit="10" stroke-linecap="round" stroke-linejoin="round"/>
<path d="M11.1666 1.33325V3.33325" stroke="#919598" stroke-width="1.5" stroke-miterlimit="10" stroke-linecap="round" stroke-linejoin="round"/>
<path d="M2.83337 6.06006H14.1667" stroke="#919598" stroke-width="1.5" stroke-miterlimit="10" stroke-linecap="round" stroke-linejoin="round"/>
<path d="M13.3066 10.5134L10.9467 12.8734C10.8533 12.9667 10.7666 13.14 10.7466 13.2667L10.62 14.1667C10.5733 14.4934 10.8 14.72 11.1267 14.6734L12.0267 14.5467C12.1533 14.5267 12.3333 14.44 12.42 14.3467L14.78 11.9867C15.1867 11.58 15.38 11.1067 14.78 10.5067C14.1867 9.91337 13.7133 10.1067 13.3066 10.5134Z" stroke="#919598" stroke-width="1.5" stroke-miterlimit="10" stroke-linecap="round" stroke-linejoin="round"/>
<path d="M12.9667 10.8533C13.1667 11.5733 13.7267 12.1333 14.4467 12.3333" stroke="#919598" stroke-width="1.5" stroke-miterlimit="10" stroke-linecap="round" stroke-linejoin="round"/>
<path d="M8.5 14.6666H5.83333C3.5 14.6666 2.5 13.3333 2.5 11.3333V5.66659C2.5 3.66659 3.5 2.33325 5.83333 2.33325H11.1667C13.5 2.33325 14.5 3.66659 14.5 5.66659V7.99992" stroke="#919598" stroke-width="1.5" stroke-miterlimit="10" stroke-linecap="round" stroke-linejoin="round"/>
<path d="M8.49703 9.13338H8.50302" stroke="#919598" stroke-width="2" stroke-linecap="round" stroke-linejoin="round"/>
<path d="M6.0295 9.13338H6.03549" stroke="#919598" stroke-width="2" stroke-linecap="round" stroke-linejoin="round"/>
<path d="M6.0295 11.1334H6.03549" stroke="#919598" stroke-width="2" stroke-linecap="round" stroke-linejoin="round"/>
</svg>
