<svg width="32" height="32" viewBox="0 0 32 32" fill="none" xmlns="http://www.w3.org/2000/svg">
<g filter="url(#filter0_d_40_1021)">
<rect x="4" y="2" width="24" height="24" rx="4" fill="white"/>
<path d="M13.3333 7.33325V9.33325" stroke="#0456AC" stroke-width="1.5" stroke-miterlimit="10" stroke-linecap="round" stroke-linejoin="round"/>
<path d="M18.6667 7.33325V9.33325" stroke="#0456AC" stroke-width="1.5" stroke-miterlimit="10" stroke-linecap="round" stroke-linejoin="round"/>
<path d="M10.3333 12.0601H21.6666" stroke="#0456AC" stroke-width="1.5" stroke-miterlimit="10" stroke-linecap="round" stroke-linejoin="round"/>
<path d="M22 11.6666V17.3333C22 19.3333 21 20.6666 18.6667 20.6666H13.3333C11 20.6666 10 19.3333 10 17.3333V11.6666C10 9.66659 11 8.33325 13.3333 8.33325H18.6667C21 8.33325 22 9.66659 22 11.6666Z" stroke="#0456AC" stroke-width="1.5" stroke-miterlimit="10" stroke-linecap="round" stroke-linejoin="round"/>
<path d="M18.4632 15.1334H18.4692" stroke="#0456AC" stroke-width="2" stroke-linecap="round" stroke-linejoin="round"/>
<path d="M18.4632 17.1334H18.4692" stroke="#0456AC" stroke-width="2" stroke-linecap="round" stroke-linejoin="round"/>
<path d="M15.9969 15.1334H16.0029" stroke="#0456AC" stroke-width="2" stroke-linecap="round" stroke-linejoin="round"/>
<path d="M15.9969 17.1334H16.0029" stroke="#0456AC" stroke-width="2" stroke-linecap="round" stroke-linejoin="round"/>
<path d="M13.5296 15.1334H13.5356" stroke="#0456AC" stroke-width="2" stroke-linecap="round" stroke-linejoin="round"/>
<path d="M13.5296 17.1334H13.5356" stroke="#0456AC" stroke-width="2" stroke-linecap="round" stroke-linejoin="round"/>
</g>
<defs>
<filter id="filter0_d_40_1021" x="0" y="0" width="32" height="32" filterUnits="userSpaceOnUse" color-interpolation-filters="sRGB">
<feFlood flood-opacity="0" result="BackgroundImageFix"/>
<feColorMatrix in="SourceAlpha" type="matrix" values="0 0 0 0 0 0 0 0 0 0 0 0 0 0 0 0 0 0 127 0" result="hardAlpha"/>
<feOffset dy="2"/>
<feGaussianBlur stdDeviation="2"/>
<feComposite in2="hardAlpha" operator="out"/>
<feColorMatrix type="matrix" values="0 0 0 0 0 0 0 0 0 0 0 0 0 0 0 0 0 0 0.29 0"/>
<feBlend mode="normal" in2="BackgroundImageFix" result="effect1_dropShadow_40_1021"/>
<feBlend mode="normal" in="SourceGraphic" in2="effect1_dropShadow_40_1021" result="shape"/>
</filter>
</defs>
</svg>
