<svg width="17" height="16" viewBox="0 0 17 16" fill="none" xmlns="http://www.w3.org/2000/svg">
<path d="M9.30001 9.59996C9.30001 10.3066 8.99333 10.9466 8.5 11.3866C8.07333 11.7733 7.51332 12 6.89998 12C5.57332 12 4.5 10.9266 4.5 9.59996C4.5 8.49329 5.25335 7.55995 6.26668 7.28662C6.54002 7.97995 7.13333 8.51996 7.86666 8.71996C8.06666 8.77329 8.28 8.80662 8.5 8.80662C8.72 8.80662 8.93334 8.77996 9.13334 8.71996C9.24001 8.98662 9.30001 9.28662 9.30001 9.59996Z" stroke="#919598" stroke-width="1.5" stroke-linecap="round" stroke-linejoin="round"/>
<path d="M10.8999 6.4C10.8999 6.71333 10.8399 7.01333 10.7333 7.28667C10.4599 7.98 9.86663 8.52 9.1333 8.72C8.9333 8.77333 8.71996 8.80667 8.49996 8.80667C8.27996 8.80667 8.06662 8.78 7.86662 8.72C7.13328 8.52 6.53998 7.98667 6.26664 7.28667C6.15998 7.01333 6.09998 6.71333 6.09998 6.4C6.09998 5.07333 7.17329 4 8.49996 4C9.82663 4 10.8999 5.07333 10.8999 6.4Z" stroke="#919598" stroke-width="1.5" stroke-linecap="round" stroke-linejoin="round"/>
<path d="M12.5 9.60003C12.5 10.9267 11.4267 12 10.1 12C9.48668 12 8.92667 11.7667 8.5 11.3867C8.99333 10.9534 9.30001 10.3134 9.30001 9.60003C9.30001 9.2867 9.24001 8.9867 9.13334 8.71336C9.86667 8.51336 10.46 7.98003 10.7333 7.28003C11.7467 7.56003 12.5 8.49336 12.5 9.60003Z" stroke="#919598" stroke-width="1.5" stroke-linecap="round" stroke-linejoin="round"/>
<path d="M6.50004 14.6666H10.5C13.8334 14.6666 15.1667 13.3333 15.1667 9.99992V5.99992C15.1667 2.66659 13.8334 1.33325 10.5 1.33325H6.50004C3.16671 1.33325 1.83337 2.66659 1.83337 5.99992V9.99992C1.83337 13.3333 3.16671 14.6666 6.50004 14.6666Z" stroke="#919598" stroke-width="1.5" stroke-linecap="round" stroke-linejoin="round"/>
</svg>
