<svg width="17" height="16" viewBox="0 0 17 16" fill="none" xmlns="http://www.w3.org/2000/svg">
<path d="M14.5533 5.71994V10.2799C14.5533 11.0266 14.1533 11.7199 13.5066 12.0999L9.54661 14.3866C8.89994 14.7599 8.09994 14.7599 7.44661 14.3866L3.48661 12.0999C2.83994 11.7266 2.43994 11.0333 2.43994 10.2799V5.71994C2.43994 4.97327 2.83994 4.27991 3.48661 3.89991L7.44661 1.61325C8.09327 1.23992 8.89327 1.23992 9.54661 1.61325L13.5066 3.89991C14.1533 4.27991 14.5533 4.96661 14.5533 5.71994Z" stroke="#919598" stroke-width="1.5" stroke-linecap="round" stroke-linejoin="round"/>
<path d="M8.49999 7.33321C9.35787 7.33321 10.0533 6.63775 10.0533 5.77987C10.0533 4.92198 9.35787 4.22656 8.49999 4.22656C7.64211 4.22656 6.94666 4.92198 6.94666 5.77987C6.94666 6.63775 7.64211 7.33321 8.49999 7.33321Z" stroke="#919598" stroke-width="1.5" stroke-linecap="round" stroke-linejoin="round"/>
<path d="M11.1667 11.1064C11.1667 9.9064 9.97337 8.93311 8.50004 8.93311C7.02671 8.93311 5.83337 9.9064 5.83337 11.1064" stroke="#919598" stroke-width="1.5" stroke-linecap="round" stroke-linejoin="round"/>
</svg>
