<svg width="16" height="16" viewBox="0 0 16 16" fill="none" xmlns="http://www.w3.org/2000/svg">
<path d="M14.3267 8C14.54 7.32 14.6667 6.58667 14.6667 5.79334C14.6667 3.73334 13.0067 2.06665 10.96 2.06665C9.74671 2.06665 8.67337 2.65335 8.00004 3.56002C7.32671 2.65335 6.24671 2.06665 5.04004 2.06665C2.99337 2.06665 1.33337 3.73334 1.33337 5.79334C1.33337 10.46 5.65337 13.2133 7.58671 13.88C7.70004 13.92 7.84671 13.94 8.00004 13.94" stroke="white" stroke-width="1.5" stroke-linecap="round" stroke-linejoin="round"/>
<path d="M12.8066 10.4933L10.4466 12.8534C10.3533 12.9467 10.2666 13.12 10.2466 13.2467L10.12 14.1467C10.0733 14.4733 10.3 14.7 10.6266 14.6533L11.5266 14.5267C11.6533 14.5067 11.8333 14.42 11.92 14.3267L14.28 11.9667C14.6866 11.56 14.88 11.0867 14.28 10.4867C13.6866 9.89334 13.2133 10.0867 12.8066 10.4933Z" stroke="white" stroke-width="1.5" stroke-miterlimit="10" stroke-linecap="round" stroke-linejoin="round"/>
<path d="M12.4667 10.8333C12.6667 11.5533 13.2267 12.1132 13.9467 12.3132" stroke="white" stroke-width="1.5" stroke-miterlimit="10" stroke-linecap="round" stroke-linejoin="round"/>
</svg>
