<svg width="116" height="39" viewBox="0 0 116 39" fill="none" xmlns="http://www.w3.org/2000/svg">
<path d="M5.25691 23.5947C5.25691 23.5947 4.75441 23.7196 4.15528 23.7196C2.0873 23.7196 0.444518 22.3463 0.444518 19.3252V7.88989H4.27124V18.6261C4.27124 19.2254 4.48384 19.5749 5.25691 19.5749V23.5947ZM13.065 19.4251C14.128 19.4251 14.959 19.1504 15.7514 18.701V22.9206C14.959 23.42 14.012 23.6946 12.6784 23.6946C8.1946 23.6946 6.55182 20.7734 6.55182 15.5051C6.55182 10.2369 8.1946 7.31562 12.6784 7.31562C14.012 7.31562 14.959 7.59027 15.7514 8.08963V12.3092C14.959 11.8848 14.128 11.5851 13.065 11.5851C11.4608 11.5851 10.3785 12.5589 10.3785 15.5051C10.3785 18.4513 11.4802 19.4251 13.065 19.4251ZM26.5358 23.2702L26.0526 22.1716C24.6804 23.2202 23.1343 23.7196 21.8007 23.7196C18.4765 23.7196 17.5102 21.4974 17.5102 18.5512V7.88989H21.4335V17.8022C21.4335 18.9507 21.7428 19.6997 22.8057 19.6997C23.7527 19.6997 24.6225 19.2004 24.9897 18.9008V7.86492H28.913V23.2702H26.5358ZM38.7697 11.8598C38.7697 9.16325 37.9194 8.71383 36.122 8.71383C34.5178 8.71383 33.3582 9.11331 32.2759 9.98719V23.6946H31.5028V8.01472H31.87L32.1986 9.23815C33.2616 8.36427 34.8271 7.86492 36.122 7.86492C37.8034 7.86492 38.7311 8.38925 39.1949 9.53777C40.6638 8.33931 42.1906 7.86492 43.3889 7.86492C45.998 7.86492 46.8097 9.11331 46.8097 11.9347V23.6946H46.0367V11.8598C46.0367 9.16325 45.1863 8.71383 43.3889 8.71383C41.92 8.71383 40.6638 9.21319 39.4075 10.2369C39.5042 10.7362 39.5621 11.3105 39.5621 11.9347V23.6946H38.7891V11.8598H38.7697ZM58.0193 22.0967V22.9456C57.053 23.42 55.4295 23.7196 54.096 23.7196C50.018 23.7196 48.9937 20.4238 48.9937 15.8047C48.9937 11.1857 49.9987 7.88989 54.096 7.88989C58.1933 7.88989 58.6185 11.2356 58.6185 15.8047V16.2292H49.7667C49.8247 19.7247 50.5785 22.8707 54.096 22.8707C55.932 22.8707 57.111 22.4712 58.0193 22.0967ZM57.9034 15.3553C57.9034 11.9846 57.6328 8.71383 54.1153 8.71383C50.5978 8.71383 49.8247 11.8598 49.7861 15.3553H57.9034ZM68.881 8.86364V0H69.6155V23.1703H69.2869L68.939 21.9718C67.8567 22.8707 66.0207 23.3201 64.6098 23.3201C60.4932 23.3201 59.4882 19.8995 59.4882 15.4302C59.4882 10.9859 60.5125 7.54033 64.6098 7.54033C66.0207 7.5653 67.7987 7.98976 68.881 8.86364ZM68.881 21.1728V9.68758C67.7601 8.8137 66.3492 8.38925 64.6291 8.38925C60.9377 8.38925 60.2612 11.9347 60.2612 15.4302C60.2612 18.9257 60.9377 22.4712 64.6291 22.4712C66.3685 22.4712 67.7794 22.0467 68.881 21.1728ZM73.9447 23.7196C72.7271 23.7196 72.1859 22.9705 72.1859 21.4225V7.88989H72.8817V21.3726C72.8817 22.5711 73.1136 22.9705 73.9447 22.9705V23.7196ZM80.6704 7.88989C81.7334 7.88989 83.0477 8.1146 84.014 8.51408V9.363C83.125 9.06338 82.2166 8.7388 80.6704 8.7388C77.095 8.7388 76.4379 12.1594 76.4379 15.8047C76.4379 19.475 77.095 22.8707 80.6704 22.8707C82.2166 22.8707 83.125 22.5711 84.014 22.2465V23.0954C83.0477 23.4949 81.7334 23.7196 80.6704 23.7196C76.6891 23.7196 75.7034 20.4238 75.7034 15.8047C75.7034 11.1607 76.6891 7.88989 80.6704 7.88989ZM86.4492 9.363V8.51408C87.1449 8.21447 88.5558 7.86492 90.0053 7.86492C93.7934 7.86492 94.5278 9.78745 94.5278 12.8335V23.5448H94.1606L93.8127 22.3463C92.7691 23.2702 90.875 23.7196 89.6381 23.7196C86.4492 23.7196 85.3475 21.4475 85.3475 18.9757C85.3475 16.6287 86.2366 14.5314 89.6768 14.2567L93.7547 13.9571V12.8335C93.7547 9.91229 93.0203 8.7388 90.0247 8.7388C88.2466 8.71383 86.913 9.16325 86.4492 9.363ZM89.3482 15.1056C86.855 15.3303 86.082 16.9033 86.082 18.9507C86.082 20.7734 86.6424 22.8707 89.6574 22.8707C91.2036 22.8707 92.6144 22.2714 93.7161 21.4475V14.7311L89.3482 15.1056ZM98.7797 23.3201C97.4268 23.3201 96.8277 22.5711 96.8277 21.073V0H97.6008V20.9981C97.6008 22.1716 97.852 22.5711 98.7797 22.5711V23.3201ZM4.36788 3.34571C4.36788 4.91869 3.38221 6.1671 2.18394 6.1671C0.985671 6.1671 0 4.89372 0 3.34571C0 1.77273 0.985671 0.524329 2.18394 0.524329C3.40153 0.524329 4.36788 1.79769 4.36788 3.34571ZM49.129 31.7093C49.129 31.0352 49.0323 30.6607 49.013 30.6108L49.4768 30.4859C49.4962 30.5358 49.5928 30.9353 49.5928 31.7343V33.1575C49.5928 33.4321 49.5735 33.7317 49.5735 33.8067C49.9407 33.3073 50.4432 32.9078 50.965 32.9078C51.6414 32.9078 52.086 33.4571 52.086 34.4558V38.4008H51.6221V34.5557C51.6221 34.1562 51.5448 33.8816 51.4289 33.7068C51.3129 33.557 51.1196 33.4571 50.8684 33.4571C50.4432 33.4571 49.96 33.7817 49.5928 34.3809V38.4008H49.129V31.7093ZM55.932 38.0762C55.6035 38.6255 55.1203 38.9501 54.5598 38.9501C54.0573 38.9501 53.7094 38.7004 53.5548 38.3259C53.4389 38.1261 53.3809 37.8015 53.3809 37.452V33.3822L53.8447 33.2574V37.2772C53.8447 37.7516 53.922 38.0262 54.1153 38.201C54.2506 38.3508 54.4632 38.4507 54.6951 38.4507C55.1396 38.4507 55.6035 38.1011 55.8934 37.452V33.3822L56.3572 33.2823V37.452C56.3572 38.1011 56.4345 38.3508 56.5891 38.6005L56.2799 39C56.0866 38.7253 55.99 38.5006 55.932 38.0762ZM57.4588 34.6056C57.4588 33.8816 57.3429 33.557 57.3236 33.4821L57.7874 33.3572C57.8067 33.4072 57.9227 33.7567 57.9227 34.2061C58.1933 33.7567 58.7151 33.3323 59.1789 33.3323C59.6814 33.3323 60.0486 33.7317 60.1839 34.306C60.5511 33.7317 61.073 33.3323 61.5368 33.3323C62.1939 33.3323 62.5998 33.9315 62.5998 34.8303V39H62.1166V34.8803C62.1166 34.281 61.904 33.8816 61.4209 33.8816C61.015 33.8816 60.6478 34.2311 60.2419 34.8303V39H59.7781V34.9552C59.7781 34.6056 59.7201 34.3559 59.6235 34.1812C59.5075 34.0064 59.3336 33.9065 59.0823 33.9065C58.7151 33.9065 58.3285 34.1812 57.942 34.7305V38.975H57.4975V34.6056H57.4588ZM66.1559 38.201C65.7694 38.7004 65.3829 38.9251 64.861 38.9251C63.7594 38.9251 63.4502 38.1511 63.4502 37.427C63.4502 36.2036 64.3199 35.5794 65.7308 35.5794C65.9047 35.5794 66.0786 35.5794 66.1173 35.6044V35.105C66.1173 34.5807 66.0786 34.306 65.9433 34.1063C65.7887 33.9065 65.5955 33.7817 65.2862 33.7817C64.7644 33.7817 64.1846 34.1063 63.8367 34.4309L63.5855 34.0064C64.1073 33.557 64.7064 33.2823 65.3249 33.2823C65.866 33.2823 66.2332 33.507 66.4072 33.9565C66.5618 34.3559 66.5811 34.7554 66.5618 35.2049L66.5232 37.1274C66.5038 37.9763 66.5618 38.3009 66.9097 38.5006L66.6584 38.9251C66.4072 38.8502 66.2333 38.5755 66.1559 38.201ZM66.098 37.6767C66.098 37.6018 66.098 37.2522 66.098 37.1773C66.098 36.9526 66.1173 36.2285 66.1173 36.0288C66.0013 36.0288 65.8467 36.0038 65.7114 36.0038C64.5325 36.0038 63.9913 36.4533 63.9913 37.3771C63.9913 38.0262 64.2426 38.5006 64.9577 38.5006C65.4215 38.4757 65.8467 38.176 66.098 37.6767ZM67.9727 34.5807C67.9727 33.9814 67.8954 33.6568 67.8374 33.4821L68.2819 33.3323C68.3012 33.3822 68.4172 33.7318 68.4172 34.2061C68.8424 33.6319 69.2869 33.3073 69.7894 33.3073C70.2339 33.3073 70.5818 33.5819 70.7364 33.9565C70.833 34.1562 70.891 34.4309 70.891 34.7305V38.9501H70.4272V35.0301C70.4272 34.5058 70.3692 34.306 70.2339 34.0813C70.118 33.9315 69.9247 33.8067 69.6734 33.8067C69.2869 33.8067 68.7651 34.1562 68.4172 34.6556V38.9251H67.9727V34.5807ZM75.2396 38.1261C74.969 37.6268 74.8337 37.0275 74.8337 36.2036C74.8337 35.0301 75.1043 34.4059 75.4522 33.9315C75.7807 33.507 76.1673 33.3073 76.6118 33.3073C77.1529 33.3073 77.4815 33.557 77.7714 33.8816L77.5008 34.306C77.1916 33.9814 76.9597 33.8316 76.5925 33.8316C76.2446 33.8316 75.8967 34.0314 75.6841 34.4309C75.4715 34.8303 75.3362 35.4296 75.3362 36.3284C75.3362 37.5768 75.7421 38.4757 76.6118 38.4757C76.9983 38.4757 77.3462 38.2759 77.6168 37.8764L77.8874 38.251C77.5008 38.7503 77.1143 38.9501 76.5925 38.9501C75.9933 38.975 75.5295 38.6754 75.2396 38.1261ZM79.1629 38.0762C78.9117 37.5768 78.7764 36.9526 78.7764 36.1287C78.7764 35.2798 78.931 34.5807 79.2209 34.1063C79.4915 33.6568 79.9167 33.3073 80.5158 33.3073C81.2116 33.3073 81.6561 33.7567 81.9073 34.2311C82.1586 34.7055 82.2746 35.3297 82.2746 36.2036C82.2746 36.9526 82.1586 37.5269 81.946 37.9513C81.6754 38.5506 81.1923 38.9501 80.5352 38.9501C79.878 38.975 79.4142 38.5755 79.1629 38.0762ZM81.5401 37.6517C81.6948 37.2023 81.7527 36.8777 81.7527 36.2535C81.7527 35.4795 81.6754 34.9302 81.5015 34.5557C81.3276 34.1312 80.941 33.8067 80.4965 33.8067C80.0326 33.8067 79.6654 34.1312 79.5108 34.4808C79.3562 34.8553 79.2596 35.3796 79.2596 36.0538C79.2596 36.8278 79.3755 37.477 79.5495 37.8515C79.7041 38.1761 80.0713 38.5006 80.5352 38.5006C81.0377 38.4757 81.3855 38.1261 81.5401 37.6517ZM83.2796 34.5807C83.2796 33.9814 83.2023 33.6568 83.1443 33.4821L83.5888 33.3323C83.6081 33.3822 83.7241 33.7318 83.7241 34.2061C84.1493 33.6319 84.6131 33.3073 85.0963 33.3073C85.5408 33.3073 85.8887 33.5819 86.0433 33.9565C86.1399 34.1562 86.1979 34.4309 86.1979 34.7305V38.9501H85.7341V35.0301C85.7341 34.5058 85.6568 34.306 85.5408 34.0813C85.4249 33.9315 85.2316 33.8067 84.9803 33.8067C84.5938 33.8067 84.072 34.1562 83.7241 34.6556V38.9251H83.2796V34.5807ZM87.6668 34.5807C87.6668 33.9814 87.5895 33.6568 87.5315 33.4821L87.976 33.3323C87.9953 33.3822 88.1113 33.7318 88.1113 34.2061C88.5365 33.6319 89.0003 33.3073 89.4835 33.3073C89.928 33.3073 90.2759 33.5819 90.4305 33.9565C90.5271 34.1562 90.5851 34.4309 90.5851 34.7305V38.9501H90.1213V35.0301C90.1213 34.5058 90.0633 34.306 89.928 34.0813C89.8121 33.9315 89.6188 33.8067 89.3675 33.8067C88.981 33.8067 88.4592 34.1562 88.1113 34.6556V38.9251H87.6668V34.5807ZM91.4548 36.1037C91.4548 35.1799 91.6288 34.5557 91.996 34.0563C92.3052 33.6319 92.7304 33.3323 93.2909 33.3323C93.7741 33.3323 94.1606 33.557 94.4312 33.8816C94.7791 34.306 94.953 34.8303 94.953 36.0538V36.1786H92.0153V36.4533C92.0153 37.0275 92.1506 37.5019 92.3246 37.8015C92.5758 38.226 92.9817 38.4757 93.5035 38.4757C93.9673 38.4757 94.3539 38.3259 94.6631 37.9763L94.8564 38.3508C94.4698 38.7503 93.9867 38.9501 93.4069 38.9501C92.1506 38.975 91.4548 37.8265 91.4548 36.1037ZM94.4312 35.7042C94.4312 35.0551 94.3345 34.6306 94.1993 34.3559C94.0253 34.0064 93.6968 33.7817 93.2716 33.7817C92.5758 33.7817 92.0733 34.4309 92.0347 35.7042H94.4312ZM96.2672 38.1261C95.9967 37.6268 95.842 37.0275 95.842 36.2036C95.842 35.0301 96.1319 34.4059 96.4992 33.9315C96.8277 33.507 97.1949 33.3073 97.6394 33.3073C98.1806 33.3073 98.5092 33.557 98.7991 33.8816L98.5285 34.306C98.2386 33.9814 97.9873 33.8316 97.6201 33.8316C97.2722 33.8316 96.9244 34.0314 96.7311 34.4309C96.5185 34.8303 96.3832 35.4296 96.3832 36.3284C96.3832 37.5768 96.7697 38.4757 97.6394 38.4757C98.026 38.4757 98.3739 38.2759 98.6444 37.8764L98.915 38.251C98.5478 38.7503 98.1613 38.9501 97.6394 38.9501C97.021 38.975 96.5571 38.6754 96.2672 38.1261ZM100.268 38.7753C100.036 38.6005 99.92 38.251 99.92 37.7266V33.6568H99.3402V33.1824H99.92C99.92 32.6082 99.978 31.8592 99.9973 31.7343L100.519 31.6095C100.5 31.7343 100.423 32.4334 100.423 33.1824H101.524L101.37 33.6568H100.403V37.5768C100.403 38.201 100.558 38.5006 101.002 38.5006C101.215 38.5006 101.331 38.4507 101.466 38.3758L101.543 38.7753C101.35 38.9001 101.138 38.975 100.848 38.975C100.577 38.975 100.403 38.8751 100.268 38.7753ZM102.394 31.5595C102.394 31.2849 102.587 31.0602 102.838 31.0602C103.07 31.0602 103.283 31.2849 103.283 31.5595C103.283 31.8342 103.09 32.0589 102.838 32.0589C102.587 32.0589 102.394 31.8342 102.394 31.5595ZM102.548 33.3323L103.109 33.2324V38.975H102.548V33.3323ZM104.539 38.0762C104.288 37.5768 104.153 36.9526 104.153 36.1287C104.153 35.2798 104.307 34.5807 104.597 34.1063C104.868 33.6568 105.293 33.3073 105.892 33.3073C106.588 33.3073 107.032 33.7567 107.284 34.2311C107.535 34.7055 107.651 35.3297 107.651 36.2036C107.651 36.9526 107.535 37.5269 107.322 37.9513C107.052 38.5506 106.568 38.9501 105.911 38.9501C105.254 38.975 104.81 38.5755 104.539 38.0762ZM106.916 37.6517C107.071 37.2023 107.129 36.8777 107.129 36.2535C107.129 35.4795 107.052 34.9302 106.878 34.5557C106.704 34.1312 106.317 33.8067 105.873 33.8067C105.409 33.8067 105.042 34.1312 104.906 34.4808C104.752 34.8553 104.655 35.3796 104.655 36.0538C104.655 36.8278 104.771 37.477 104.945 37.8515C105.1 38.1761 105.467 38.5006 105.931 38.5006C106.433 38.4757 106.762 38.1261 106.916 37.6517ZM108.675 34.5807C108.675 33.9814 108.598 33.6568 108.54 33.4821L108.984 33.3323C109.004 33.3822 109.12 33.7318 109.12 34.2061C109.545 33.6319 110.009 33.3073 110.492 33.3073C110.936 33.3073 111.284 33.5819 111.439 33.9565C111.535 34.1562 111.593 34.4309 111.593 34.7305V38.9501H111.13V35.0301C111.13 34.5058 111.052 34.306 110.936 34.0813C110.82 33.9315 110.627 33.8067 110.376 33.8067C109.989 33.8067 109.467 34.1562 109.12 34.6556V38.9251H108.675V34.5807ZM112.908 38.4507L113.101 38.0262C113.487 38.3508 113.971 38.5006 114.454 38.5006C115.092 38.5006 115.478 38.0512 115.478 37.402C115.478 36.9027 115.266 36.5282 114.686 36.3784L114.145 36.2535C113.468 36.0787 113.082 35.6044 113.082 34.8303C113.082 33.9315 113.642 33.2823 114.531 33.2823C114.995 33.2823 115.44 33.4321 115.787 33.7068L115.594 34.1312C115.266 33.9065 114.918 33.7318 114.531 33.7318C113.932 33.7318 113.584 34.1562 113.584 34.7554C113.584 35.2798 113.816 35.5544 114.319 35.6793L114.879 35.8291C115.671 36.0288 116 36.5531 116 37.2772C116 38.2509 115.401 38.9501 114.454 38.9501C113.855 38.975 113.294 38.7753 112.908 38.4507Z" fill="#0456AC"/>
</svg>
