<svg width="17" height="16" viewBox="0 0 17 16" fill="none" xmlns="http://www.w3.org/2000/svg">
<path d="M12.5 4.77325C12.46 4.76659 12.4133 4.76659 12.3733 4.77325C11.4533 4.73992 10.72 3.98659 10.72 3.05325C10.72 2.09992 11.4866 1.33325 12.44 1.33325C13.3933 1.33325 14.16 2.10659 14.16 3.05325C14.1533 3.98659 13.42 4.73992 12.5 4.77325Z" stroke="#919598" stroke-width="1.5" stroke-linecap="round" stroke-linejoin="round"/>
<path d="M11.8133 9.62669C12.7267 9.78003 13.7333 9.62003 14.44 9.14669C15.38 8.52003 15.38 7.49336 14.44 6.86669C13.7267 6.39336 12.7067 6.23336 11.7933 6.39336" stroke="#919598" stroke-width="1.5" stroke-linecap="round" stroke-linejoin="round"/>
<path d="M4.47995 4.77325C4.51995 4.76659 4.56661 4.76659 4.60661 4.77325C5.52661 4.73992 6.25995 3.98659 6.25995 3.05325C6.25995 2.09992 5.49328 1.33325 4.53995 1.33325C3.58661 1.33325 2.81995 2.10659 2.81995 3.05325C2.82661 3.98659 3.55995 4.73992 4.47995 4.77325Z" stroke="#919598" stroke-width="1.5" stroke-linecap="round" stroke-linejoin="round"/>
<path d="M5.16663 9.62669C4.25329 9.78003 3.24663 9.62003 2.53996 9.14669C1.59996 8.52003 1.59996 7.49336 2.53996 6.86669C3.25329 6.39336 4.27329 6.23336 5.18663 6.39336" stroke="#919598" stroke-width="1.5" stroke-linecap="round" stroke-linejoin="round"/>
<path d="M8.49997 9.75324C8.45997 9.74657 8.4133 9.74657 8.3733 9.75324C7.4533 9.7199 6.71997 8.96657 6.71997 8.03323C6.71997 7.0799 7.48664 6.31323 8.43997 6.31323C9.3933 6.31323 10.16 7.08657 10.16 8.03323C10.1533 8.96657 9.41997 9.72657 8.49997 9.75324Z" stroke="#919598" stroke-width="1.5" stroke-linecap="round" stroke-linejoin="round"/>
<path d="M6.55998 11.8532C5.61998 12.4799 5.61998 13.5066 6.55998 14.1332C7.62665 14.8466 9.37331 14.8466 10.44 14.1332C11.38 13.5066 11.38 12.4799 10.44 11.8532C9.37998 11.1466 7.62665 11.1466 6.55998 11.8532Z" stroke="#919598" stroke-width="1.5" stroke-linecap="round" stroke-linejoin="round"/>
</svg>
