<svg width="17" height="16" viewBox="0 0 17 16" fill="none" xmlns="http://www.w3.org/2000/svg">
<path d="M6.28125 9.55331C6.28125 10.4133 6.94125 11.1066 7.76125 11.1066H9.43458C10.1479 11.1066 10.7279 10.5 10.7279 9.75331C10.7279 8.93998 10.3746 8.65331 9.84792 8.46664L7.16125 7.53331C6.63458 7.34664 6.28125 7.05998 6.28125 6.24664C6.28125 5.49998 6.86125 4.89331 7.57458 4.89331H9.24792C10.0679 4.89331 10.7279 5.58664 10.7279 6.44664" stroke="#919598" stroke-width="1.5" stroke-linecap="round" stroke-linejoin="round"/>
<path d="M8.5 4V12" stroke="#919598" stroke-width="1.5" stroke-linecap="round" stroke-linejoin="round"/>
<path d="M8.50004 14.6666C12.1819 14.6666 15.1667 11.6818 15.1667 7.99992C15.1667 4.31802 12.1819 1.33325 8.50004 1.33325C4.81814 1.33325 1.83337 4.31802 1.83337 7.99992C1.83337 11.6818 4.81814 14.6666 8.50004 14.6666Z" stroke="#919598" stroke-width="1.5" stroke-linecap="round" stroke-linejoin="round"/>
</svg>
