<svg width="17" height="16" viewBox="0 0 17 16" fill="none" xmlns="http://www.w3.org/2000/svg">
<path d="M8.5 10C9.60457 10 10.5 9.10457 10.5 8C10.5 6.89543 9.60457 6 8.5 6C7.39543 6 6.5 6.89543 6.5 8C6.5 9.10457 7.39543 10 8.5 10Z" stroke="#919598" stroke-width="1.5" stroke-miterlimit="10" stroke-linecap="round" stroke-linejoin="round"/>
<path d="M1.83337 8.58679V7.41345C1.83337 6.72012 2.40004 6.14679 3.10004 6.14679C4.30671 6.14679 4.80004 5.29345 4.19337 4.24679C3.84671 3.64679 4.05337 2.86679 4.66004 2.52012L5.81337 1.86012C6.34004 1.54679 7.02004 1.73345 7.33337 2.26012L7.40671 2.38679C8.00671 3.43345 8.99337 3.43345 9.60004 2.38679L9.67337 2.26012C9.98671 1.73345 10.6667 1.54679 11.1934 1.86012L12.3467 2.52012C12.9534 2.86679 13.16 3.64679 12.8134 4.24679C12.2067 5.29345 12.7 6.14679 13.9067 6.14679C14.6 6.14679 15.1734 6.71345 15.1734 7.41345V8.58679C15.1734 9.28012 14.6067 9.85345 13.9067 9.85345C12.7 9.85345 12.2067 10.7068 12.8134 11.7535C13.16 12.3601 12.9534 13.1335 12.3467 13.4801L11.1934 14.1401C10.6667 14.4535 9.98671 14.2668 9.67337 13.7401L9.60004 13.6135C9.00004 12.5668 8.01337 12.5668 7.40671 13.6135L7.33337 13.7401C7.02004 14.2668 6.34004 14.4535 5.81337 14.1401L4.66004 13.4801C4.05337 13.1335 3.84671 12.3535 4.19337 11.7535C4.80004 10.7068 4.30671 9.85345 3.10004 9.85345C2.40004 9.85345 1.83337 9.28012 1.83337 8.58679Z" stroke="#919598" stroke-width="1.5" stroke-miterlimit="10" stroke-linecap="round" stroke-linejoin="round"/>
</svg>
