<svg width="17" height="16" viewBox="0 0 17 16" fill="none" xmlns="http://www.w3.org/2000/svg">
<path d="M12.9467 12.4466L14.4267 11.7066V9.85325M9.98003 6.51992L8.50003 7.25992L9.98003 6.51992ZM8.50003 7.25992L7.02003 6.51992L8.50003 7.25992ZM8.50003 7.25992V9.11325V7.25992ZM14.4267 4.29325L12.9467 5.03325L14.4267 4.29325ZM14.4267 4.29325L12.9467 3.55325L14.4267 4.29325ZM14.4267 4.29325V6.14659V4.29325ZM9.98003 2.07325L8.50003 1.33325L7.02003 2.07325H9.98003ZM2.57336 4.29325L4.05337 3.55325L2.57336 4.29325ZM2.57336 4.29325L4.05337 5.03325L2.57336 4.29325ZM2.57336 4.29325V6.14659V4.29325ZM8.50003 14.6666L7.02003 13.9266L8.50003 14.6666ZM8.50003 14.6666L9.98003 13.9266L8.50003 14.6666ZM8.50003 14.6666V12.8133V14.6666ZM4.05337 12.4466L2.57336 11.7066V9.85325L4.05337 12.4466Z" stroke="#919598" stroke-width="1.5" stroke-linecap="round" stroke-linejoin="round"/>
</svg>
