<svg width="16" height="16" viewBox="0 0 16 16" fill="none" xmlns="http://www.w3.org/2000/svg">
<path d="M2.33333 13.6666C2.88667 14.22 3.78 14.22 4.33333 13.6666L13 4.99996C13.5533 4.44663 13.5533 3.55329 13 2.99996C12.4467 2.44663 11.5533 2.44663 11 2.99996L2.33333 11.6666C1.78 12.22 1.78 13.1133 2.33333 13.6666Z" stroke="#0456AC" stroke-width="1.5" stroke-linecap="round" stroke-linejoin="round"/>
<path d="M12.0067 5.99341L10.0067 3.99341" stroke="#0456AC" stroke-width="1.5" stroke-linecap="round" stroke-linejoin="round"/>
<path d="M5.66663 1.62659L6.66663 1.33325L6.37329 2.33325L6.66663 3.33325L5.66663 3.03992L4.66663 3.33325L4.95996 2.33325L4.66663 1.33325L5.66663 1.62659Z" stroke="#0456AC" stroke-linecap="round" stroke-linejoin="round"/>
<path d="M3 5.62659L4 5.33325L3.70667 6.33325L4 7.33325L3 7.03992L2 7.33325L2.29333 6.33325L2 5.33325L3 5.62659Z" stroke="#0456AC" stroke-linecap="round" stroke-linejoin="round"/>
<path d="M13 8.96008L14 8.66675L13.7067 9.66675L14 10.6667L13 10.3734L12 10.6667L12.2933 9.66675L12 8.66675L13 8.96008Z" stroke="#0456AC" stroke-linecap="round" stroke-linejoin="round"/>
</svg>
